<svg fill="none" height="495" viewBox="0 0 945 495" width="945" xmlns="http://www.w3.org/2000/svg" xmlns:xlink="http://www.w3.org/1999/xlink"><clipPath id="clip0_8947_1896"><path d="M0 0H945V495H0Z"/></clipPath><g clip-path="url(#clip0_8947_1896)"><path d="M0 0H945V495H0Z" fill="#e2f1ff"/><path d="M235.462 138.424C235.462 122.836 248.088 110.199 263.662 110.199H355.985C371.559 110.199 384.184 122.836 384.184 138.424 384.184 154.013 371.559 166.649 355.985 166.649H263.662C248.088 166.649 235.462 154.013 235.462 138.424Z" fill="#ffffff"/><path d="M268.056 122.019C268.056 106.43 280.682 93.7937 296.256 93.7937H332.215C347.789 93.7937 360.415 106.43 360.415 122.019 360.415 137.607 347.789 150.244 332.215 150.244H296.256C280.682 150.244 268.056 137.607 268.056 122.019Z" fill="#ffffff"/><path d="M258.662 114.082C258.662 96.3494 273.024 81.9744 290.74 81.9744 308.456 81.9744 322.818 96.3494 322.818 114.082V118.136C322.818 135.869 308.456 150.244 290.74 150.244 273.024 150.244 258.662 135.869 258.662 118.136V114.082Z" fill="#ffffff"/><g fill="#0ead69"><ellipse cx="56.6426" cy="56.6871" rx="56.6426" ry="56.6871" transform="matrix(-.965286 .261195 .260753 .965406 810.46 384.648)"/><ellipse cx="56.6426" cy="56.6871" rx="56.6426" ry="56.6871" transform="matrix(-.965286 .261195 .260753 .965406 847.603 316.01)"/><ellipse cx="56.6426" cy="56.6871" rx="56.6426" ry="56.6871" transform="matrix(-.965286 .261195 .260753 .965406 625.165 375.191)"/><ellipse cx="56.6426" cy="56.6871" rx="56.6426" ry="56.6871" transform="matrix(-.965286 .261195 .260753 .965406 711.003 375.979)"/><ellipse cx="56.6426" cy="56.6871" rx="56.6426" ry="56.6871" transform="matrix(-.965286 .261195 .260753 .965406 770.065 333.416)"/><ellipse cx="65.6863" cy="65.7443" rx="65.6863" ry="65.7443" transform="matrix(-.992575 .121637 .121419 .992601 735.145 280.913)"/><ellipse cx="65.6895" cy="65.7411" rx="65.6895" ry="65.7411" transform="matrix(-.965286 .261195 .260753 .965406 786.743 245.135)"/><ellipse cx="65.6895" cy="65.7411" rx="65.6895" ry="65.7411" transform="matrix(-.965286 .261195 .260753 .965406 881.243 204.936)"/><ellipse cx="65.6895" cy="65.7411" rx="65.6895" ry="65.7411" transform="matrix(-.965286 .261195 .260753 .965406 892.268 128.479)"/><ellipse cx="65.6863" cy="65.7443" rx="65.6863" ry="65.7443" transform="matrix(-.992575 .121637 .121419 .992601 698.805 318.046)"/><ellipse cx="65.6895" cy="65.7411" rx="65.6895" ry="65.7411" transform="matrix(-.965286 .261195 .260753 .965406 596.168 333.416)"/><ellipse cx="56.6426" cy="56.6871" rx="56.6426" ry="56.6871" transform="matrix(-.965286 .261195 .260753 .965406 887.498 229.294)"/><ellipse cx="56.6426" cy="56.6871" rx="56.6426" ry="56.6871" transform="matrix(-.965286 .261195 .260753 .965406 881.883 384.648)"/><ellipse cx="56.6426" cy="56.6871" rx="56.6426" ry="56.6871" transform="matrix(-.965286 .261195 .260753 .965406 914.935 319.858)"/><ellipse cx="48.8642" cy="48.9026" rx="48.8642" ry="48.9026" transform="matrix(.965286 .261195 -.260753 .965406 95.5905 244.347)"/><ellipse cx="48.8642" cy="48.9026" rx="48.8642" ry="48.9026" transform="matrix(.965286 .261195 -.260753 .965406 89.3125 180.803)"/><ellipse cx="48.8642" cy="48.9026" rx="48.8642" ry="48.9026" transform="matrix(.965286 .261195 -.260753 .965406 40.9913 124.149)"/><ellipse cx="48.8642" cy="48.9026" rx="48.8642" ry="48.9026" transform="matrix(.965286 .261195 -.260753 .965406 59.7398 240.016)"/><ellipse cx="48.8642" cy="48.9026" rx="48.8642" ry="48.9026" transform="matrix(.965286 .261195 -.260753 .965406 31.2266 184.123)"/><ellipse cx="79.9536" cy="80.0165" rx="79.9536" ry="80.0165" transform="matrix(-.965286 .261195 .260753 .965406 538.656 342.874)"/><ellipse cx="79.9536" cy="80.0165" rx="79.9536" ry="80.0165" transform="matrix(-.965286 .261195 .260753 .965406 449.669 374.403)"/><path d="M346.091 432.274C346.091 395.833 316.577 366.292 280.17 366.292H64.3466C27.9391 366.292-1.57504 395.833-1.57504 432.274-1.57504 468.715 27.9391 498.256 64.3466 498.256H280.17C316.577 498.256 346.091 468.715 346.091 432.274Z"/><path d="M269.896 393.923C269.896 357.482 240.382 327.941 203.975 327.941H119.912C83.5044 327.941 53.9904 357.482 53.9904 393.923 53.9904 430.364 83.5045 459.904 119.912 459.904H203.975C240.382 459.904 269.896 430.364 269.896 393.923Z"/><path d="M303.187 368.983C303.187 324.399 267.077 288.256 222.533 288.256 177.989 288.256 141.879 324.399 141.879 368.983V379.177C141.879 423.762 177.989 459.904 222.533 459.904 267.077 459.904 303.187 423.762 303.187 379.177V368.983Z"/></g><path d="M472.5 268.907C472.5 256.031 462.071 245.592 449.206 245.592H372.944C360.079 245.592 349.65 256.031 349.65 268.907 349.65 281.784 360.079 292.222 372.944 292.222H449.206C462.071 292.222 472.5 281.784 472.5 268.907Z" fill="#ffffff"/><path d="M445.576 255.355C445.576 242.479 435.147 232.04 422.282 232.04H392.578C379.713 232.04 369.284 242.479 369.284 255.355 369.284 268.232 379.713 278.67 392.578 278.67H422.282C435.147 278.67 445.576 268.232 445.576 255.355Z" fill="#ffffff"/><path d="M453.337 248.799C453.337 234.151 441.473 222.277 426.839 222.277 412.204 222.277 400.34 234.151 400.34 248.799V252.148C400.34 266.796 412.204 278.671 426.839 278.671 441.473 278.671 453.337 266.796 453.337 252.148V248.799Z" fill="#ffffff"/><path d="M654.399 229.722 644.439 297.446C642.664 309.491 653.67 319.479 665.47 316.552L698.331 308.406 695.658 221.764" fill="#000000"/><path d="M574.833 415.81 524.222 391.609 511.992 368.978H602.957L679.533 283.99V398.725L654.726 412.893C630.182 426.911 600.34 427.996 574.843 415.801L574.833 415.81Z" fill="#c3dcf4"/><path d="M520.859 368.977H511.992L524.222 391.608 552.092 404.934 520.859 368.977Z" fill="#b1cfe5"/><path d="M765.014 446.464 760.8 467.468C755.989 491.399 738.078 509.157 716.215 515.058L732.995 527.047C744.693 535.398 738.788 553.849 724.419 553.849H670.639C654.139 553.849 637.994 549.061 624.167 540.064L542.303 486.807C527.177 476.969 520.57 458.163 526.223 441.012 532.352 422.393 551.123 411.022 570.454 414.22L765.014 446.455V446.464Z" fill="#f8f8f8"/><path d="M654.718 412.893 664.294 407.422 667.855 365.284C668.023 363.292 665.256 362.628 664.5 364.479L642.347 418.7C646.58 417.101 650.728 415.174 654.718 412.893Z" fill="#b1cfe5"/><path clip-rule="evenodd" d="M711.439 257.656 684.979 267.905H684.989C667.909 274.517 648.849 265.006 643.842 247.378L643.326 245.565 639.723 243.133C638.667 242.422 638.163 241.132 638.452 239.897L639.923 233.592 638.946 230.153C634.246 213.619 643.832 196.393 660.36 191.69 676.878 186.986 694.088 196.58 698.788 213.123L711.439 257.656Z" fill="#ffbd6e" fill-rule="evenodd"/><path d="M710.833 261.396 686.325 277.696C678.907 282.634 674.152 290.685 673.395 299.56L660.987 446.464H766.377C775.86 446.464 782.718 437.403 780.149 428.266L760.332 357.736C754.913 338.435 746.832 319.984 736.339 302.908L710.814 261.396H710.833Z" fill="#c3dcf4"/><path d="M711.871 258.871 698.52 254.196 684.982 267.896 684.786 284.897C684.758 287.216 687.663 288.282 689.139 286.487L711.881 258.862 711.871 258.871Z" fill="#ffbd6e"/><path d="M643.618 221.653C644.076 221.522 644.469 221.185 644.656 220.708 644.964 219.904 644.562 219.006 643.768 218.697 643.628 218.641 640.227 217.351 636.106 218.726 635.284 218.997 634.845 219.885 635.116 220.708 635.387 221.531 636.266 221.971 637.097 221.699 640.106 220.689 642.628 221.615 642.647 221.625 642.974 221.746 643.31 221.755 643.627 221.662" fill="#000000"/><path d="M643.478 234.416C644.618 236.923 645.786 238.84 646.524 238.503 647.253 238.166 646.571 236.025 645.431 233.528 644.291 231.022 643.123 229.105 642.385 229.441 641.656 229.778 642.338 231.92 643.478 234.416Z" fill="#000000"/><path d="M654.455 254.822C653.895 254.981 653.578 255.495 653.68 256 653.793 256.543 654.316 256.889 654.857 256.776 655.11 256.73 655.353 256.664 655.596 256.599 660.239 255.28 663.855 250.567 663.817 245.872 663.817 245.611 663.705 245.358 663.518 245.171 663.331 244.984 663.079 244.881 662.808 244.881 662.724 244.881 662.63 244.9 662.546 244.919 662.117 245.04 661.818 245.442 661.818 245.882 661.846 249.725 658.866 253.578 655.045 254.672 654.848 254.728 654.651 254.775 654.455 254.813V254.822Z" fill="#000000"/><path d="M734.75 312.007 716.39 317.393C702.338 321.518 688.268 310.969 688.268 296.315V232.163L676.739 219.473C671.638 213.853 664.294 210.795 656.698 211.131L637.815 211.964C635.125 212.085 633.06 209.616 633.648 206.988L634.442 203.482C635.096 200.592 637.283 198.282 640.133 197.469L679.597 186.237C692.005 182.702 705.151 188.716 710.598 200.414L748.456 281.652C754.137 293.846 747.634 308.238 734.741 312.016L734.75 312.007Z" fill="#000000"/><path d="M677.133 229.292C676.124 225.748 678.18 222.063 681.721 221.053 685.262 220.043 688.942 222.1 689.951 225.645 690.961 229.189 688.905 232.873 685.364 233.883 681.823 234.893 678.142 232.836 677.133 229.292Z" fill="#ffbd6e"/><path d="M493.374 324.852 488.25 327.39 530.921 413.693 536.348 411.767 493.374 324.852Z" fill="#000000"/><path d="M530.93 407.973V413.696H626.416V407.973H530.93Z" fill="#000000"/><path d="M571.347 404.205 564.134 407.721C563.115 408.217 561.891 407.955 561.172 407.076 560.331 406.056 560.462 404.541 561.462 403.672L584.492 383.772C589.435 379.498 596.788 379.619 601.6 384.033L615.25 396.574 611.17 415.4 591.21 404.616C585.044 401.278 577.644 401.119 571.337 404.195L571.347 404.205Z" fill="#ffbd6e"/><path d="M496.365 350.591 497.869 365.114C498.112 367.443 496.916 369.687 494.842 370.781 491.525 372.54 490.759 376.954 493.282 379.731L500.075 387.194C503.634 391.112 508.68 393.337 513.968 393.337H520.853L499.29 349.74C498.524 348.188 496.178 348.871 496.356 350.591H496.365Z" fill="#ffbd6e"/><path d="M665.671 450.074 610.874 415.258 615.265 396.583 674.594 407.973 700.671 328.12 750.544 410.835 727.467 439.741C712.518 458.462 685.889 462.914 665.671 450.074Z" fill="#c3dcf4"/><path d="M762.274 460.109 726.602 449.121C725.107 448.662 725.443 446.455 727.004 446.455H765.011L762.274 460.099V460.109Z" fill="#bcbcbc"/><path clip-rule="evenodd" d="M985.782-31.2875H-40.1625V528.063H985.782V-31.2875ZM464.151 403.802C465.546 402.4 467.823 402.4 469.218 403.802 509.057 443.848 564.217 468.637 625.167 468.637 746.655 468.637 845.14 370.152 845.14 248.664 845.14 127.176 746.655 28.6909 625.167 28.6909 564.217 28.6909 509.057 53.4797 469.218 93.5256 467.823 94.9276 465.546 94.9276 464.151 93.5256 424.313 53.4797 369.152 28.6908 308.202 28.6908 186.714 28.6908 88.2289 127.176 88.2289 248.664 88.2289 370.152 186.714 468.637 308.202 468.637 369.152 468.637 424.313 443.848 464.151 403.802Z" fill="#3e5fff" fill-rule="evenodd"/><path d="M211.05 390.6H168.525C166.35 390.6 164.588 388.837 164.588 386.662V344.137" stroke="#3e5fff" stroke-linecap="round" stroke-width="3.9375"/><path d="M211.05 101.587H168.525C166.35 101.587 164.588 103.35 164.588 105.525V148.05" stroke="#3e5fff" stroke-linecap="round" stroke-width="3.9375"/><path d="M723.713 390.6H766.238C768.412 390.6 770.175 388.837 770.175 386.662V344.137" stroke="#3e5fff" stroke-linecap="round" stroke-width="3.9375"/><path d="M723.712 101.587H766.237C768.412 101.587 770.175 103.35 770.175 105.525V148.05" stroke="#3e5fff" stroke-linecap="round" stroke-width="3.9375"/><rect fill="#ffffff" height="53.3268" rx="26.6634" width="257.513" x="424.463" y="115.763"/><path d="M424.463 142.426C424.463 127.7 436.4 115.763 451.126 115.763H484.806V169.089H451.126C436.4 169.089 424.463 157.152 424.463 142.426V142.426Z" fill="#3e5fff"/><path d="M502.206 134.901V150.796H498.845V138.091H498.752L495.112 140.373V137.392L499.047 134.901H502.206ZM511.734 134.684C512.552 134.684 513.338 134.821 514.094 135.095 514.854 135.369 515.532 135.807 516.127 136.407 516.727 137.007 517.201 137.804 517.547 138.797 517.899 139.785 518.078 140.999 518.083 142.437 518.083 143.788 517.93 144.993 517.625 146.054 517.325 147.109 516.893 148.007 516.329 148.747 515.765 149.487 515.085 150.051 514.288 150.439 513.491 150.822 512.601 151.013 511.618 151.013 510.557 151.013 509.621 150.809 508.808 150.4 507.996 149.986 507.342 149.425 506.845 148.716 506.353 148.002 506.056 147.2 505.952 146.31H509.266C509.396 146.889 509.667 147.34 510.081 147.66 510.495 147.976 511.007 148.134 511.618 148.134 512.653 148.134 513.439 147.684 513.977 146.783 514.515 145.878 514.787 144.639 514.792 143.066H514.684C514.446 143.532 514.125 143.932 513.721 144.269 513.318 144.6 512.855 144.856 512.332 145.037 511.815 145.218 511.264 145.309 510.679 145.309 509.742 145.309 508.907 145.089 508.172 144.649 507.437 144.209 506.858 143.604 506.434 142.833 506.009 142.062 505.797 141.182 505.797 140.194 505.792 139.128 506.038 138.179 506.534 137.346 507.031 136.513 507.725 135.861 508.614 135.39 509.51 134.914 510.55 134.679 511.734 134.684ZM511.758 137.323C511.235 137.323 510.769 137.447 510.361 137.695 509.957 137.944 509.636 138.277 509.398 138.696 509.166 139.115 509.052 139.584 509.057 140.101 509.057 140.624 509.171 141.095 509.398 141.514 509.631 141.928 509.947 142.259 510.345 142.507 510.749 142.75 511.209 142.872 511.727 142.872 512.115 142.872 512.474 142.799 512.805 142.655 513.137 142.51 513.424 142.31 513.667 142.057 513.915 141.798 514.109 141.501 514.249 141.164 514.389 140.828 514.459 140.471 514.459 140.093 514.453 139.591 514.334 139.131 514.102 138.712 513.869 138.293 513.548 137.956 513.139 137.703 512.73 137.449 512.27 137.323 511.758 137.323ZM520.411 150.796V148.374L526.069 143.136C526.55 142.67 526.954 142.251 527.28 141.878 527.611 141.506 527.862 141.141 528.033 140.784 528.203 140.422 528.289 140.031 528.289 139.612 528.289 139.146 528.183 138.745 527.971 138.409 527.759 138.068 527.469 137.806 527.101 137.625 526.734 137.439 526.318 137.346 525.852 137.346 525.366 137.346 524.941 137.444 524.579 137.641 524.217 137.837 523.937 138.119 523.741 138.487 523.544 138.854 523.446 139.291 523.446 139.798H520.256C520.256 138.758 520.492 137.856 520.962 137.09 521.433 136.324 522.093 135.732 522.941 135.313 523.79 134.893 524.768 134.684 525.875 134.684 527.013 134.684 528.004 134.886 528.848 135.289 529.696 135.688 530.356 136.241 530.827 136.95 531.298 137.659 531.533 138.471 531.533 139.387 531.533 139.987 531.414 140.58 531.176 141.164 530.943 141.749 530.527 142.398 529.926 143.112 529.326 143.821 528.48 144.672 527.389 145.666L525.068 147.94V148.048H531.743V150.796H520.411ZM536.141 150.998C535.629 150.998 535.189 150.817 534.822 150.454 534.46 150.087 534.278 149.647 534.278 149.135 534.278 148.628 534.46 148.193 534.822 147.831 535.189 147.469 535.629 147.288 536.141 147.288 536.638 147.288 537.072 147.469 537.445 147.831 537.818 148.193 538.004 148.628 538.004 149.135 538.004 149.477 537.916 149.79 537.74 150.074 537.569 150.354 537.344 150.579 537.065 150.749 536.785 150.915 536.477 150.998 536.141 150.998ZM545.617 134.901V150.796H542.257V138.091H542.164L538.524 140.373V137.392L542.459 134.901H545.617ZM555.495 151.013C554.678 151.008 553.889 150.871 553.128 150.602 552.373 150.333 551.695 149.896 551.095 149.29 550.495 148.685 550.019 147.883 549.667 146.884 549.32 145.886 549.147 144.659 549.147 143.206 549.152 141.871 549.305 140.678 549.605 139.628 549.91 138.572 550.345 137.677 550.909 136.942 551.478 136.208 552.158 135.649 552.95 135.266 553.741 134.878 554.629 134.684 555.612 134.684 556.672 134.684 557.609 134.891 558.421 135.305 559.234 135.713 559.886 136.27 560.377 136.973 560.874 137.677 561.174 138.466 561.277 139.341H557.963C557.834 138.787 557.562 138.352 557.149 138.037 556.735 137.721 556.222 137.563 555.612 137.563 554.577 137.563 553.791 138.013 553.252 138.914 552.72 139.814 552.448 141.038 552.438 142.585H552.546C552.784 142.114 553.105 141.713 553.509 141.382 553.917 141.045 554.38 140.789 554.898 140.613 555.42 140.432 555.971 140.342 556.551 140.342 557.493 140.342 558.331 140.564 559.066 141.009 559.8 141.449 560.38 142.054 560.804 142.825 561.228 143.596 561.44 144.478 561.44 145.472 561.44 146.548 561.189 147.505 560.688 148.343 560.191 149.182 559.495 149.839 558.6 150.315 557.71 150.786 556.675 151.018 555.495 151.013ZM555.48 148.374C555.997 148.374 556.46 148.25 556.869 148.002 557.278 147.754 557.599 147.417 557.831 146.993 558.064 146.569 558.181 146.093 558.181 145.565 558.181 145.037 558.064 144.564 557.831 144.145 557.604 143.726 557.288 143.392 556.885 143.143 556.481 142.895 556.021 142.771 555.503 142.771 555.115 142.771 554.756 142.843 554.424 142.988 554.098 143.133 553.811 143.335 553.563 143.594 553.32 143.852 553.128 144.152 552.989 144.494 552.849 144.83 552.779 145.19 552.779 145.573 552.779 146.085 552.895 146.553 553.128 146.977 553.366 147.402 553.687 147.741 554.091 147.994 554.499 148.248 554.962 148.374 555.48 148.374ZM569.753 151.013C568.557 151.013 567.494 150.819 566.563 150.431 565.637 150.038 564.91 149.502 564.382 148.825 563.854 148.147 563.59 147.378 563.59 146.52 563.59 145.857 563.74 145.249 564.04 144.696 564.346 144.137 564.76 143.674 565.282 143.306 565.805 142.934 566.389 142.696 567.036 142.592V142.484C566.188 142.313 565.499 141.902 564.972 141.25 564.444 140.593 564.18 139.829 564.18 138.96 564.18 138.138 564.421 137.405 564.902 136.764 565.383 136.117 566.043 135.61 566.881 135.243 567.724 134.87 568.682 134.684 569.753 134.684 570.824 134.684 571.778 134.87 572.616 135.243 573.46 135.615 574.122 136.125 574.603 136.772 575.084 137.413 575.328 138.143 575.333 138.96 575.328 139.835 575.059 140.598 574.526 141.25 573.993 141.902 573.31 142.313 572.477 142.484V142.592C573.113 142.696 573.69 142.934 574.207 143.306 574.73 143.674 575.144 144.137 575.449 144.696 575.76 145.249 575.917 145.857 575.923 146.52 575.917 147.378 575.651 148.147 575.123 148.825 574.595 149.502 573.866 150.038 572.935 150.431 572.008 150.819 570.948 151.013 569.753 151.013ZM569.753 148.545C570.285 148.545 570.751 148.449 571.15 148.258 571.548 148.061 571.858 147.792 572.081 147.451 572.309 147.104 572.422 146.706 572.422 146.256 572.422 145.795 572.306 145.389 572.073 145.037 571.84 144.68 571.525 144.401 571.126 144.199 570.728 143.992 570.27 143.889 569.753 143.889 569.24 143.889 568.782 143.992 568.379 144.199 567.975 144.401 567.657 144.68 567.424 145.037 567.197 145.389 567.083 145.795 567.083 146.256 567.083 146.706 567.194 147.104 567.416 147.451 567.639 147.792 567.952 148.061 568.356 148.258 568.759 148.449 569.225 148.545 569.753 148.545ZM569.753 141.444C570.198 141.444 570.593 141.353 570.94 141.172 571.287 140.991 571.558 140.74 571.755 140.419 571.952 140.099 572.05 139.729 572.05 139.309 572.05 138.896 571.952 138.533 571.755 138.223 571.558 137.907 571.289 137.662 570.948 137.486 570.606 137.305 570.208 137.214 569.753 137.214 569.302 137.214 568.904 137.305 568.557 137.486 568.211 137.662 567.939 137.907 567.742 138.223 567.551 138.533 567.455 138.896 567.455 139.309 567.455 139.729 567.554 140.099 567.75 140.419 567.947 140.74 568.218 140.991 568.565 141.172 568.912 141.353 569.308 141.444 569.753 141.444ZM579.788 150.998C579.275 150.998 578.836 150.817 578.468 150.454 578.106 150.087 577.925 149.647 577.925 149.135 577.925 148.628 578.106 148.193 578.468 147.831 578.836 147.469 579.275 147.288 579.788 147.288 580.284 147.288 580.719 147.469 581.092 147.831 581.464 148.193 581.65 148.628 581.65 149.135 581.65 149.477 581.562 149.79 581.386 150.074 581.216 150.354 580.991 150.579 580.711 150.749 580.432 150.915 580.124 150.998 579.788 150.998ZM589.697 151.013C588.538 151.013 587.505 150.814 586.6 150.416 585.7 150.012 584.988 149.458 584.466 148.755 583.948 148.046 583.682 147.228 583.666 146.302H587.05C587.071 146.69 587.198 147.032 587.43 147.327 587.668 147.616 587.984 147.842 588.377 148.002 588.77 148.162 589.213 148.242 589.704 148.242 590.217 148.242 590.669 148.152 591.063 147.971 591.456 147.79 591.764 147.539 591.986 147.218 592.209 146.897 592.32 146.527 592.32 146.108 592.32 145.684 592.201 145.309 591.963 144.983 591.73 144.652 591.394 144.393 590.954 144.207 590.519 144.02 590.002 143.927 589.402 143.927H587.919V141.459H589.402C589.909 141.459 590.356 141.371 590.744 141.195 591.138 141.019 591.443 140.776 591.66 140.466 591.878 140.15 591.986 139.783 591.986 139.364 591.986 138.965 591.89 138.616 591.699 138.316 591.513 138.011 591.249 137.773 590.907 137.602 590.571 137.431 590.178 137.346 589.728 137.346 589.272 137.346 588.856 137.429 588.478 137.594 588.1 137.755 587.798 137.985 587.57 138.285 587.342 138.585 587.221 138.937 587.205 139.341H583.984C584 138.425 584.261 137.618 584.768 136.919 585.275 136.221 585.958 135.675 586.817 135.281 587.681 134.883 588.657 134.684 589.743 134.684 590.84 134.684 591.8 134.883 592.623 135.281 593.445 135.68 594.084 136.218 594.54 136.896 595 137.568 595.228 138.324 595.223 139.162 595.228 140.052 594.951 140.794 594.392 141.389 593.838 141.984 593.117 142.362 592.227 142.523V142.647C593.396 142.797 594.286 143.203 594.897 143.865 595.512 144.522 595.818 145.345 595.812 146.333 595.818 147.239 595.556 148.043 595.029 148.747 594.506 149.451 593.784 150.004 592.863 150.408 591.942 150.811 590.887 151.013 589.697 151.013ZM598.228 150.796V148.374L603.886 143.136C604.367 142.67 604.771 142.251 605.097 141.878 605.428 141.506 605.679 141.141 605.849 140.784 606.02 140.422 606.106 140.031 606.106 139.612 606.106 139.146 605.999 138.745 605.787 138.409 605.575 138.068 605.285 137.806 604.918 137.625 604.551 137.439 604.134 137.346 603.669 137.346 603.182 137.346 602.758 137.444 602.396 137.641 602.034 137.837 601.754 138.119 601.558 138.487 601.361 138.854 601.263 139.291 601.263 139.798H598.073C598.073 138.758 598.308 137.856 598.779 137.09 599.25 136.324 599.91 135.732 600.758 135.313 601.607 134.893 602.585 134.684 603.692 134.684 604.83 134.684 605.821 134.886 606.664 135.289 607.513 135.688 608.173 136.241 608.643 136.95 609.114 137.659 609.35 138.471 609.35 139.387 609.35 139.987 609.231 140.58 608.993 141.164 608.76 141.749 608.343 142.398 607.743 143.112 607.143 143.821 606.297 144.672 605.205 145.666L602.885 147.94V148.048H609.559V150.796H598.228ZM613.958 150.998C613.446 150.998 613.006 150.817 612.638 150.454 612.276 150.087 612.095 149.647 612.095 149.135 612.095 148.628 612.276 148.193 612.638 147.831 613.006 147.469 613.446 147.288 613.958 147.288 614.455 147.288 614.889 147.469 615.262 147.831 615.634 148.193 615.82 148.628 615.82 149.135 615.82 149.477 615.733 149.79 615.557 150.074 615.386 150.354 615.161 150.579 614.881 150.749 614.602 150.915 614.294 150.998 613.958 150.998ZM623.434 134.901V150.796H620.074V138.091H619.98L616.34 140.373V137.392L620.275 134.901H623.434ZM627.84 150.796 634.43 137.757V137.649H626.754V134.901H637.907V137.687L631.31 150.796H627.84ZM646.1 151.145C644.766 151.14 643.617 150.811 642.655 150.159 641.697 149.508 640.96 148.563 640.443 147.327 639.93 146.09 639.677 144.603 639.682 142.864 639.682 141.131 639.938 139.654 640.45 138.432 640.968 137.211 641.705 136.283 642.662 135.646 643.625 135.005 644.771 134.684 646.1 134.684 647.43 134.684 648.574 135.005 649.531 135.646 650.493 136.288 651.233 137.219 651.751 138.44 652.268 139.656 652.524 141.131 652.519 142.864 652.519 144.608 652.26 146.098 651.743 147.334 651.231 148.571 650.496 149.515 649.539 150.167 648.581 150.819 647.435 151.145 646.1 151.145ZM646.1 148.359C647.011 148.359 647.738 147.901 648.281 146.985 648.825 146.069 649.094 144.696 649.088 142.864 649.088 141.658 648.964 140.655 648.716 139.853 648.473 139.051 648.126 138.448 647.676 138.044 647.231 137.641 646.706 137.439 646.1 137.439 645.195 137.439 644.471 137.892 643.927 138.797 643.384 139.703 643.11 141.058 643.105 142.864 643.105 144.085 643.226 145.104 643.469 145.922 643.718 146.734 644.067 147.345 644.517 147.754 644.967 148.157 645.495 148.359 646.1 148.359Z" fill="#3e5fff"/><path d="M449.053 128.509V156.648H444.811V128.509H449.053Z" fill="#ffffff"/><path d="M455.23 156.648V128.509H465.25C467.437 128.509 469.249 128.908 470.686 129.705 472.123 130.502 473.198 131.592 473.912 132.975 474.626 134.349 474.983 135.897 474.983 137.619 474.983 139.35 474.621 140.907 473.898 142.29 473.184 143.664 472.105 144.754 470.659 145.56 469.222 146.357 467.415 146.755 465.237 146.755H458.346V143.156H464.852C466.234 143.156 467.355 142.917 468.215 142.441 469.076 141.956 469.707 141.296 470.11 140.463 470.512 139.629 470.714 138.681 470.714 137.619 470.714 136.556 470.512 135.613 470.11 134.788 469.707 133.964 469.071 133.318 468.202 132.851 467.341 132.384 466.207 132.15 464.797 132.15H459.471V156.648H455.23Z" fill="#ffffff"/></g></svg>